<svg width="165" height="165" viewBox="0 0 165 165" fill="none" xmlns="http://www.w3.org/2000/svg">
<circle cx="82.5" cy="82.5" r="82.5" fill="#FFFFFF" fill-opacity="0.3"/>
<path d="M79.1429 64.8571C79.1429 62.4762 78.3095 60.4524 76.6429 58.7857C74.9762 57.119 72.9524 56.2857 70.5714 56.2857C68.1905 56.2857 66.1667 57.119 64.5 58.7857C62.8333 60.4524 62 62.4762 62 64.8571C62 66.1071 62.2827 67.3423 62.8482 68.5625C61.628 67.997 60.3929 67.7143 59.1429 67.7143C56.7619 67.7143 54.7381 68.5476 53.0714 70.2143C51.4048 71.881 50.5714 73.9048 50.5714 76.2857C50.5714 78.6667 51.4048 80.6905 53.0714 82.3571C54.7381 84.0238 56.7619 84.8571 59.1429 84.8571C61.5238 84.8571 63.5476 84.0238 65.2143 82.3571C66.881 80.6905 67.7143 78.6667 67.7143 76.2857C67.7143 75.0357 67.4315 73.8006 66.8661 72.5804C68.0863 73.1458 69.3214 73.4286 70.5714 73.4286C72.9524 73.4286 74.9762 72.5952 76.6429 70.9286C78.3095 69.2619 79.1429 67.2381 79.1429 64.8571ZM117.134 96.2857C117.134 96.7917 116.405 97.7738 114.946 99.2321C113.488 100.69 112.506 101.42 112 101.42C111.732 101.42 111.308 101.182 110.728 100.705C110.147 100.229 109.604 99.7381 109.098 99.2321C108.592 98.7262 108.019 98.131 107.379 97.4464C106.74 96.7619 106.375 96.375 106.286 96.2857L102 100.571L111.821 110.393C112.655 111.226 113.071 112.238 113.071 113.429C113.071 114.679 112.491 115.884 111.33 117.045C110.17 118.205 108.964 118.786 107.714 118.786C106.524 118.786 105.512 118.369 104.679 117.536L74.7232 87.5804C69.4851 91.4792 64.0536 93.4286 58.4286 93.4286C53.5774 93.4286 49.6265 91.9033 46.5759 88.8527C43.5253 85.8021 42 81.8512 42 77C42 72.2381 43.4137 67.5804 46.2411 63.0268C49.0685 58.4732 52.7589 54.7827 57.3125 51.9554C61.8661 49.128 66.5238 47.7143 71.2857 47.7143C76.1369 47.7143 80.0878 49.2396 83.1384 52.2902C86.189 55.3408 87.7143 59.2917 87.7143 64.1429C87.7143 69.7679 85.7649 75.1994 81.8661 80.4375L97.7143 96.2857L102 92C101.911 91.9107 101.524 91.5461 100.839 90.9062C100.155 90.2664 99.5595 89.6935 99.0536 89.1875C98.5476 88.6815 98.0565 88.1384 97.5804 87.558C97.1042 86.9777 96.8661 86.5536 96.8661 86.2857C96.8661 85.7798 97.5952 84.7976 99.0536 83.3393C100.512 81.881 101.494 81.1518 102 81.1518C102.387 81.1518 102.729 81.3006 103.027 81.5982C103.205 81.7768 103.89 82.439 105.08 83.5848C106.271 84.7307 107.491 85.9137 108.741 87.1339C109.991 88.3542 111.278 89.6339 112.603 90.9732C113.927 92.3125 115.013 93.4732 115.862 94.4554C116.71 95.4375 117.134 96.0476 117.134 96.2857Z" fill="white" fill-opacity="0.5"/>
</svg>
