<svg width="284" height="29" fill="none" xmlns="http://www.w3.org/2000/svg"><path d="M21.347 28.395c-3.794 0-7.589.036-11.38 0a10.045 10.045 0 01-9.665-7.672C-1.14 15.012 2.734 9.17 8.555 8.312c.422-.064.54-.219.608-.62a9.094 9.094 0 0117.78-.916.715.715 0 00.612.592c2.393.567 4.056 1.98 5.013 4.17.122.279.172.614.41.803.12.096.27.147.424.144 4.138.364 7.4 4.039 7.26 8.151a7.942 7.942 0 01-7.797 7.747c-3.848.053-7.683.012-11.518.012z" fill="#fff"/><path fill-rule="evenodd" clip-rule="evenodd" d="M20.876 12.05a1.709 1.709 0 012.94 1.204 1.712 1.712 0 01-.521 1.215l-2.566 2.566a1.71 1.71 0 01-2.418 0 .855.855 0 00-1.21 1.209 3.42 3.42 0 004.838 0l2.565-2.566a3.42 3.42 0 00-4.837-4.836l-1.283 1.282a.854.854 0 101.21 1.21l1.282-1.283zm-4.275 4.276a1.71 1.71 0 012.418 0 .854.854 0 101.21-1.209 3.421 3.421 0 00-4.838 0l-2.565 2.566a3.42 3.42 0 104.837 4.837l1.282-1.283a.855.855 0 10-1.209-1.21l-1.283 1.283a1.71 1.71 0 11-2.418-2.418l2.566-2.566z" fill="url(#prefix__paint0_linear_1002_7628)"/><path d="M52.366.488v27.948H80.54v-6.949H61.119V.488h-8.753zM91.77.488h-8.378v5.785h8.377V.488zm0 7.739h-8.378v20.21h8.377V8.226zM95.315 28.436h8.377v-9.541c0-3.306 2.441-5.484 6.198-5.484 3.719 0 5.409 1.915 5.409 5.033v9.992h8.452V15.665c0-3.907-2.78-7.89-9.842-7.89h-.263c-6.01 0-9.015 2.893-10.03 3.908V8.227h-8.301v20.21zM145.074 28.925c14.049 0 16.378-4.733 16.378-9.354v-.526c0-5.56-4.245-8.114-14.763-8.302l-4.695-.075c-5.71-.112-6.461-1.202-6.461-2.404s.488-2.404 7.25-2.404h.601c7.325 0 7.888 2.292 8.076 3.343h9.091v-.375c0-4.208-3.005-8.828-16.228-8.828h-2.592c-12.735 0-15.214 4.357-15.214 8.527v.338c0 4.358 3.193 7.889 13.636 8.19l4.808.112c6.462.188 7.326 1.202 7.326 2.817 0 1.503-.827 2.968-8.19 2.968h-.525c-7.213 0-8.19-2.742-8.302-4.433h-9.129v.414c0 3.68 1.691 9.992 16.341 9.992h2.592zM164.061 28.436h8.377v-9.541c0-3.306 2.442-5.484 6.198-5.484 3.719 0 5.409 1.915 5.409 5.033v9.992h8.452V15.665c0-3.907-2.854-7.89-9.841-7.89h-.263c-6.011 0-9.054 2.93-9.955 3.832V.489h-8.377v27.948zM213.783 19.459c0 2.404-2.893 4.808-7.363 4.808-2.855 0-3.681-1.202-3.681-2.292v-.037c0-1.165.901-1.54 3.043-1.878l8.001-1.24v.639zm.225 6.198c.301 1.916 1.578 2.78 3.193 2.78H224v-5.485h-1.089c-.864 0-1.052-.413-1.052-1.014V14.2c0-2.93-.751-6.537-12.471-6.537h-2.066c-11.27 0-12.059 4.17-12.059 6.837v.075h7.776c.113-.676.301-2.254 5.297-2.254h.188c4.921 0 5.259.902 5.259 1.653 0 .639-.338.94-1.277 1.052l-9.241.864c-6.048.563-8.49 2.329-8.49 6.048v.263c0 3.456 2.592 6.611 9.391 6.611h.489c5.935 0 8.489-2.066 9.353-3.155zM234.361 17.994c0-2.592 1.54-4.884 4.357-4.884h.038c3.155 0 4.282 2.254 4.282 4.846h8.077V16.79c0-5.221-2.367-9.015-8.227-9.015h-.413c-5.034 0-7.475 2.892-8.189 4.02v-3.57h-8.302v20.21h8.377V17.994zM267.807 12.359c4.245 0 6.198 1.277 6.761 3.418h-13.523c.639-2.141 2.517-3.418 6.724-3.418h.038zm15.101 8.94h-8.264c-.113.489-1.015 2.592-6.574 2.592h-.038c-4.62 0-6.649-1.578-7.137-3.944h22.125v-1.39c0-4.921-2.178-10.894-14.049-10.894h-2.291c-10.932 0-14.012 4.996-14.012 10.18v.827c0 5.296 3.456 10.33 14.237 10.33h2.141c12.059 0 13.862-4.921 13.862-7.663v-.038z" fill="#fff"/><defs><linearGradient id="prefix__paint0_linear_1002_7628" x1="25.011" y1="13.698" x2="10.299" y2="20.074" gradientUnits="userSpaceOnUse"><stop stop-color="#01B6F9"/><stop offset="1" stop-color="#016DED"/></linearGradient></defs></svg>
