<svg width="606" height="62" fill="none" xmlns="http://www.w3.org/2000/svg"><path d="M45.639 60.707c-8.112 0-16.225.076-24.331 0A21.477 21.477 0 01.647 44.303C-2.436 32.097 5.844 19.608 18.29 17.77c.903-.136 1.153-.468 1.3-1.327a19.443 19.443 0 0138.01-1.957 1.528 1.528 0 001.311 1.267c5.115 1.212 8.671 4.234 10.718 8.915.26.596.366 1.313.875 1.717.258.204.578.313.907.307 8.846.778 15.822 8.635 15.523 17.427a16.98 16.98 0 01-16.67 16.561c-8.226.114-16.426.027-24.625.027z" fill="#fff"/><path fill-rule="evenodd" clip-rule="evenodd" d="M44.632 25.764a3.658 3.658 0 016.015 1.155 3.654 3.654 0 01-.844 4.015l-5.485 5.485a3.656 3.656 0 01-5.17 0 1.828 1.828 0 00-2.586 2.585 7.313 7.313 0 0010.34 0l5.486-5.485a7.313 7.313 0 00-10.34-10.34l-2.743 2.742a1.828 1.828 0 102.585 2.585l2.742-2.742zm-9.141 9.141a3.656 3.656 0 015.17 0 1.828 1.828 0 102.585-2.585 7.313 7.313 0 00-10.34 0l-5.485 5.485a7.313 7.313 0 1010.34 10.34l2.743-2.742a1.828 1.828 0 10-2.585-2.585l-2.742 2.742a3.658 3.658 0 01-6.287-2.572 3.657 3.657 0 011.116-2.598l5.485-5.485z" fill="url(#prefix__paint0_linear_1002_7650)"/><path d="M111.955 1.044v59.751h60.233V45.938h-41.52V1.044h-18.713zM196.196 1.044h-17.909v12.368h17.909V1.044zm0 16.544h-17.909v43.207h17.909V17.588zM203.776 60.795h17.909V40.396c0-7.067 5.221-11.725 13.252-11.725 7.951 0 11.565 4.096 11.565 10.762v21.362h18.069V33.49c0-8.353-5.943-16.866-21.041-16.866h-.562c-12.85 0-19.275 6.184-21.443 8.353v-7.389h-17.749v43.207zM310.159 61.84c30.036 0 35.015-10.12 35.015-19.998v-1.124c0-11.886-9.075-17.348-31.562-17.75l-10.039-.16c-12.207-.24-13.813-2.57-13.813-5.14s1.044-5.14 15.5-5.14h1.285c15.66 0 16.865 4.9 17.266 7.148h19.436v-.803C343.247 9.878 336.822 0 308.552 0h-5.541c-27.225 0-32.526 9.316-32.526 18.23v.723c0 9.316 6.826 16.866 29.153 17.508l10.28.241c13.813.402 15.66 2.57 15.66 6.023 0 3.213-1.767 6.345-17.508 6.345h-1.124c-15.42 0-17.508-5.863-17.749-9.477h-19.515v.884c0 7.87 3.614 21.362 34.935 21.362h5.542zM350.751 60.795h17.91V40.396c0-7.067 5.22-11.725 13.251-11.725 7.951 0 11.565 4.096 11.565 10.762v21.362h18.07V33.49c0-8.353-6.104-16.866-21.042-16.866h-.562c-12.85 0-19.355 6.265-21.282 8.192V1.044h-17.91v59.751zM457.053 41.601c0 5.14-6.184 10.28-15.741 10.28-6.103 0-7.87-2.57-7.87-4.9v-.08c0-2.49 1.927-3.292 6.505-4.015l17.106-2.65V41.6zm.482 13.251c.643 4.096 3.373 5.943 6.827 5.943h14.536V49.07h-2.329c-1.847 0-2.249-.883-2.249-2.168V30.358c0-6.265-1.606-13.975-26.663-13.975h-4.417c-24.093 0-25.78 8.915-25.78 14.617v.16h16.625c.24-1.445.642-4.818 11.323-4.818h.402c10.521 0 11.243 1.927 11.243 3.534 0 1.365-.722 2.007-2.73 2.248l-19.757 1.847c-12.93 1.205-18.15 4.98-18.15 12.93v.563c0 7.388 5.542 14.134 20.078 14.134h1.044c12.689 0 18.15-4.417 19.997-6.746zM501.048 38.469c0-5.541 3.293-10.44 9.316-10.44h.08c6.747 0 9.156 4.818 9.156 10.36h17.267v-2.49c0-11.163-5.06-19.275-17.588-19.275h-.884c-10.761 0-15.982 6.184-17.508 8.594v-7.63h-17.748v43.207h17.909V38.47zM572.553 26.422c9.075 0 13.251 2.73 14.456 7.309h-28.912c1.365-4.578 5.381-7.309 14.376-7.309h.08zm32.285 19.114H587.17c-.241 1.044-2.169 5.542-14.055 5.542h-.08c-9.878 0-14.215-3.373-15.259-8.433h47.303v-2.971c0-10.521-4.658-23.29-30.036-23.29h-4.899c-23.371 0-29.956 10.68-29.956 21.764v1.766c0 11.324 7.388 22.086 30.438 22.086h4.577c25.78 0 29.635-10.52 29.635-16.383v-.08z" fill="#fff"/><defs><linearGradient id="prefix__paint0_linear_1002_7650" x1="53.472" y1="29.287" x2="22.017" y2="42.917" gradientUnits="userSpaceOnUse"><stop stop-color="#01B6F9"/><stop offset="1" stop-color="#016DED"/></linearGradient></defs></svg>
