<?xml version="1.0" encoding="UTF-8" standalone="no"?>
<svg
   xmlns:dc="http://purl.org/dc/elements/1.1/"
   xmlns:cc="http://creativecommons.org/ns#"
   xmlns:rdf="http://www.w3.org/1999/02/22-rdf-syntax-ns#"
   xmlns:svg="http://www.w3.org/2000/svg"
   xmlns="http://www.w3.org/2000/svg"
   xmlns:sodipodi="http://sodipodi.sourceforge.net/DTD/sodipodi-0.dtd"
   xmlns:inkscape="http://www.inkscape.org/namespaces/inkscape"
   width="480.55804"
   height="62"
   version="1.1"
   id="svg77"
   sodipodi:docname="ls-logo-big.svg"
   style="fill:none"
   inkscape:version="0.92.4 (5da689c313, 2019-01-14)">
  <metadata
     id="metadata81">
    <rdf:RDF>
      <cc:Work
         rdf:about="">
        <dc:format>image/svg+xml</dc:format>
        <dc:type
           rdf:resource="http://purl.org/dc/dcmitype/StillImage" />
        <dc:title></dc:title>
      </cc:Work>
    </rdf:RDF>
  </metadata>
  <sodipodi:namedview
     pagecolor="#005bea"
     bordercolor="#666666"
     borderopacity="1"
     objecttolerance="10"
     gridtolerance="10"
     guidetolerance="10"
     inkscape:pageopacity="0"
     inkscape:pageshadow="2"
     inkscape:window-width="1916"
     inkscape:window-height="1037"
     id="namedview79"
     showgrid="false"
     inkscape:zoom="1.4455446"
     inkscape:cx="302.50207"
     inkscape:cy="60.65819"
     inkscape:window-x="1920"
     inkscape:window-y="41"
     inkscape:window-maximized="0"
     inkscape:current-layer="svg77" />
  <path
     d="m 45.638595,60.707 c -8.112,0 -16.225,0.076 -24.331,0 A 21.477,21.477 0 0 1 0.64659456,44.303 C -2.4364054,32.097 5.8435946,19.608 18.289595,17.77 c 0.903,-0.136 1.153,-0.468 1.3,-1.327 a 19.443,19.443 0 0 1 38.01,-1.957 1.528,1.528 0 0 0 1.311,1.267 c 5.115,1.212 8.671,4.234 10.718,8.915 0.26,0.596 0.366,1.313 0.875,1.717 0.258,0.204 0.578,0.313 0.907,0.307 8.846,0.778 15.822,8.635 15.523,17.427 a 16.98,16.98 0 0 1 -16.67,16.561 c -8.226,0.114 -16.426,0.027 -24.625,0.027 z"
     id="path64"
     inkscape:connector-curvature="0"
     style="fill:#ffffff" />
  <path
     d="m 44.631595,25.764 a 3.658,3.658 0 0 1 6.015,1.155 3.654,3.654 0 0 1 -0.844,4.015 l -5.485,5.485 a 3.656,3.656 0 0 1 -5.17,0 1.8282246,1.8282246 0 0 0 -2.586,2.585 7.313,7.313 0 0 0 10.34,0 l 5.486,-5.485 a 7.313,7.313 0 0 0 -10.34,-10.34 l -2.743,2.742 a 1.828,1.828 0 1 0 2.585,2.585 z m -9.141,9.141 a 3.656,3.656 0 0 1 5.17,0 1.828,1.828 0 1 0 2.585,-2.585 7.313,7.313 0 0 0 -10.34,0 l -5.485,5.485 a 7.313,7.313 0 1 0 10.34,10.34 l 2.743,-2.742 a 1.828,1.828 0 1 0 -2.585,-2.585 l -2.742,2.742 a 3.658,3.658 0 0 1 -6.287,-2.572 3.657,3.657 0 0 1 1.116,-2.598 z"
     id="path66"
     inkscape:connector-curvature="0"
     style="clip-rule:evenodd;fill:url(#prefix__paint0_linear_1002_7650);fill-rule:evenodd" />
  <path
     d="m 111.95459,1.044 v 59.751 h 45.02334 V 45.938 H 125.9423 V 1.044 Z m 62.969,0 h -13.38674 v 12.368 h 13.38674 z m 0,16.544 h -13.38674 v 43.207 h 13.38674 z m 5.66594,43.207 h 13.38674 V 40.396 c 0,-7.067 3.90262,-11.725 9.90568,-11.725 5.94327,0 8.64468,4.096 8.64468,10.762 v 21.362 h 13.50633 V 33.49 c 0,-8.353 -4.44231,-16.866 -15.72786,-16.866 h -0.42008 c -9.6052,0 -14.4078,6.184 -16.02835,8.353 v -7.389 h -13.26714 z m 79.51984,1.045 c 22.4515,0 26.17324,-10.12 26.17324,-19.998 v -1.124 c 0,-11.886 -6.78344,-17.348 -23.59217,-17.75 l -7.50401,-0.16 c -9.12457,-0.24 -10.32503,-2.57 -10.32503,-5.14 0,-2.57 0.78037,-5.14 11.58604,-5.14 h 0.96052 c 11.70563,0 12.60635,4.9 12.9061,7.148 H 284.8422 V 18.873 C 284.8422,9.878 280.0396,0 258.90816,0 h -4.14182 C 234.41602,0 230.4536,9.316 230.4536,18.23 v 0.723 c 0,9.316 5.10234,16.866 21.79147,17.508 l 7.68416,0.241 c 10.32503,0.402 11.70563,2.57 11.70563,6.023 0,3.213 -1.3208,6.345 -13.08699,6.345 h -0.84017 c -11.52624,0 -13.08699,-5.863 -13.26714,-9.477 h -14.58719 v 0.884 c 0,7.87 2.70141,21.362 26.11343,21.362 h 4.14257 z m 30.34197,-1.045 h 13.38748 V 40.396 c 0,-7.067 3.90188,-11.725 9.90494,-11.725 5.94326,0 8.64468,4.096 8.64468,10.762 v 21.362 h 13.50708 V 33.49 c 0,-8.353 -4.56266,-16.866 -15.72861,-16.866 h -0.42009 c -9.6052,0 -14.4676,6.265 -15.908,8.192 V 1.044 h -13.38748 z m 79.45929,-19.194 c 0,5.14 -4.62246,10.28 -11.76618,10.28 -4.56191,0 -5.88272,-2.57 -5.88272,-4.9 v -0.08 c 0,-2.49 1.44041,-3.292 4.8624,-4.015 l 12.7865,-2.65 V 41.6 Z m 0.36029,13.251 c 0.48063,4.096 2.52127,5.943 5.10309,5.943 h 10.86546 V 49.07 h -1.7409 c -1.3806,0 -1.68109,-0.883 -1.68109,-2.168 V 30.358 c 0,-6.265 -1.20047,-13.975 -19.93023,-13.975 h -3.30165 c -18.00919,0 -19.2702,8.915 -19.2702,14.617 v 0.16 h 12.42696 c 0.1794,-1.445 0.47989,-4.818 8.46379,-4.818 h 0.30049 c 7.8643,0 8.40399,1.927 8.40399,3.534 0,1.365 -0.53969,2.007 -2.04064,2.248 l -14.76809,1.847 c -9.66499,1.205 -13.56687,4.98 -13.56687,12.93 v 0.563 c 0,7.388 4.14257,14.134 15.00803,14.134 h 0.78037 c 9.48486,0 13.56688,-4.417 14.94749,-6.746 z m 32.52537,-16.383 c 0,-5.541 2.46147,-10.44 6.96358,-10.44 h 0.0598 c 5.04329,0 6.84399,4.818 6.84399,10.36 h 12.90684 v -2.49 c 0,-11.163 -3.78228,-19.275 -13.14679,-19.275 h -0.66077 c -8.0437,0 -11.94633,6.184 -13.08699,8.594 v -7.63 h -13.26639 v 43.207 h 13.38673 V 38.47 Z M 456.2453,26.422 c 6.78344,0 9.90494,2.73 10.80566,7.309 h -21.61132 c 1.02032,-4.578 4.02222,-7.309 10.74586,-7.309 z m 24.1326,19.114 h -13.20659 c -0.18014,1.044 -1.6213,5.542 -10.50592,5.542 h -0.0598 c -7.38367,0 -10.62552,-3.373 -11.40589,-8.433 h 35.35834 v -2.971 c 0,-10.521 -3.48179,-23.29 -22.4515,-23.29 h -3.66193 c -17.46951,0 -22.3917,10.68 -22.3917,21.764 v 1.766 c 0,11.324 5.52243,22.086 22.75199,22.086 h 3.42124 c 19.2702,0 22.15176,-10.52 22.15176,-16.383 v -0.08 z"
     id="path68"
     inkscape:connector-curvature="0"
     style="fill:#ffffff;stroke-width:0.86457294" />
  <defs
     id="defs75">
    <linearGradient
       id="prefix__paint0_linear_1002_7650"
       x1="53.472"
       y1="29.287001"
       x2="22.017"
       y2="42.917"
       gradientUnits="userSpaceOnUse"
       gradientTransform="translate(-4.0543557e-4)">
      <stop
         stop-color="#01B6F9"
         id="stop70" />
      <stop
         offset="1"
         stop-color="#016DED"
         id="stop72" />
    </linearGradient>
  </defs>
</svg>
