<svg xmlns="http://www.w3.org/2000/svg" width="480.558" height="62" fill="none"><path d="M45.639 60.707c-8.112 0-16.225.076-24.331 0A21.477 21.477 0 01.647 44.303C-2.436 32.097 5.844 19.608 18.29 17.77c.903-.136 1.153-.468 1.3-1.327a19.443 19.443 0 0138.01-1.957 1.528 1.528 0 001.31 1.267c5.116 1.212 8.672 4.234 10.719 8.915.26.596.366 1.313.875 1.717.258.204.578.313.907.307 8.846.778 15.822 8.635 15.523 17.427a16.98 16.98 0 01-16.67 16.561c-8.226.114-16.426.027-24.625.027z" fill="#fff"/><path d="M44.632 25.764a3.658 3.658 0 016.015 1.155 3.654 3.654 0 01-.844 4.015l-5.485 5.485a3.656 3.656 0 01-5.17 0 1.828 1.828 0 00-2.586 2.585 7.313 7.313 0 0010.34 0l5.486-5.485a7.313 7.313 0 00-10.34-10.34l-2.743 2.742a1.828 1.828 0 102.585 2.585zm-9.141 9.141a3.656 3.656 0 015.17 0 1.828 1.828 0 102.585-2.585 7.313 7.313 0 00-10.34 0l-5.485 5.485a7.313 7.313 0 1010.34 10.34l2.743-2.742a1.828 1.828 0 10-2.585-2.585l-2.742 2.742a3.658 3.658 0 01-6.287-2.572 3.657 3.657 0 011.116-2.598z" clip-rule="evenodd" fill="url(#prefix__paint0_linear_1002_7650)" fill-rule="evenodd"/><path d="M111.955 1.044v59.751h45.023V45.938h-31.036V1.044zm62.969 0h-13.387v12.368h13.387zm0 16.544h-13.387v43.207h13.387zm5.666 43.207h13.386V40.396c0-7.067 3.903-11.725 9.906-11.725 5.943 0 8.645 4.096 8.645 10.762v21.362h13.506V33.49c0-8.353-4.442-16.866-15.728-16.866h-.42c-9.605 0-14.408 6.184-16.028 8.353v-7.389H180.59zm79.52 1.045c22.45 0 26.173-10.12 26.173-19.998v-1.124c0-11.886-6.784-17.348-23.593-17.75l-7.504-.16c-9.124-.24-10.325-2.57-10.325-5.14s.78-5.14 11.586-5.14h.961c11.706 0 12.606 4.9 12.906 7.148h14.528v-.803C284.842 9.878 280.04 0 258.908 0h-4.142c-20.35 0-24.312 9.316-24.312 18.23v.723c0 9.316 5.102 16.866 21.791 17.508l7.684.241c10.325.402 11.706 2.57 11.706 6.023 0 3.213-1.32 6.345-13.087 6.345h-.84c-11.527 0-13.087-5.863-13.267-9.477h-14.588v.884c0 7.87 2.702 21.362 26.114 21.362h4.142zm30.341-1.045h13.388V40.396c0-7.067 3.902-11.725 9.905-11.725 5.943 0 8.644 4.096 8.644 10.762v21.362h13.508V33.49c0-8.353-4.563-16.866-15.73-16.866h-.42c-9.604 0-14.467 6.265-15.907 8.192V1.044H290.45zm79.46-19.194c0 5.14-4.623 10.28-11.767 10.28-4.561 0-5.882-2.57-5.882-4.9v-.08c0-2.49 1.44-3.292 4.862-4.015l12.787-2.65V41.6zm.36 13.251c.48 4.096 2.521 5.943 5.103 5.943h10.865V49.07h-1.74c-1.381 0-1.682-.883-1.682-2.168V30.358c0-6.265-1.2-13.975-19.93-13.975h-3.301c-18.01 0-19.27 8.915-19.27 14.617v.16h12.426c.18-1.445.48-4.818 8.464-4.818h.3c7.865 0 8.405 1.927 8.405 3.534 0 1.365-.54 2.007-2.041 2.248l-14.768 1.847c-9.665 1.205-13.567 4.98-13.567 12.93v.563c0 7.388 4.143 14.134 15.008 14.134h.78c9.485 0 13.567-4.417 14.948-6.746zm32.525-16.383c0-5.541 2.462-10.44 6.964-10.44h.06c5.043 0 6.844 4.818 6.844 10.36h12.907v-2.49c0-11.163-3.783-19.275-13.147-19.275h-.661c-8.044 0-11.946 6.184-13.087 8.594v-7.63H389.41v43.207h13.386V38.47zm53.45-12.047c6.783 0 9.904 2.73 10.805 7.309H445.44c1.02-4.578 4.022-7.309 10.745-7.309zm24.132 19.114H467.17c-.18 1.044-1.621 5.542-10.506 5.542h-.06c-7.383 0-10.625-3.373-11.405-8.433h35.358v-2.971c0-10.521-3.482-23.29-22.451-23.29h-3.662c-17.47 0-22.392 10.68-22.392 21.764v1.766c0 11.324 5.522 22.086 22.752 22.086h3.421c19.27 0 22.152-10.52 22.152-16.383v-.08z" fill="#fff"/><defs id="defs75"><linearGradient id="prefix__paint0_linear_1002_7650" x1="53.472" y1="29.287" x2="22.017" y2="42.917" gradientUnits="userSpaceOnUse"><stop stop-color="#01B6F9" id="stop70"/><stop offset="1" stop-color="#016DED" id="stop72"/></linearGradient></defs></svg>